<?xml version="1.0" encoding="UTF-8"?>
<!DOCTYPE svg PUBLIC "-//W3C//DTD SVG 1.1//EN" "http://www.w3.org/Graphics/SVG/1.1/DTD/svg11.dtd">
<svg xmlns="http://www.w3.org/2000/svg" version="1.1" width="512px" height="512px" style="shape-rendering:geometricPrecision; text-rendering:geometricPrecision; image-rendering:optimizeQuality; fill-rule:evenodd; clip-rule:evenodd" xmlns:xlink="http://www.w3.org/1999/xlink">
<g><path style="opacity:0.953" fill="#191a19" d="M 140.5,46.5 C 222.501,46.3333 304.501,46.5 386.5,47C 397.126,49.3444 403.96,55.8444 407,66.5C 408.03,70.7727 408.697,75.106 409,79.5C 409.667,198.167 409.667,316.833 409,435.5C 408.914,447.452 404.414,457.286 395.5,465C 392.754,466.75 389.754,467.75 386.5,468C 304.5,468.667 222.5,468.667 140.5,468C 128.303,465.467 121.136,457.967 119,445.5C 118.667,443.167 118.333,440.833 118,438.5C 117.333,317.833 117.333,197.167 118,76.5C 118.694,65.6108 123.194,56.7775 131.5,50C 134.459,48.3957 137.459,47.2291 140.5,46.5 Z M 152.5,86.5 C 227.167,86.5 301.833,86.5 376.5,86.5C 376.5,107.833 376.5,129.167 376.5,150.5C 301.833,150.5 227.167,150.5 152.5,150.5C 152.5,129.167 152.5,107.833 152.5,86.5 Z M 150.5,180.5 C 165.17,180.333 179.837,180.5 194.5,181C 195.333,181.833 196.167,182.667 197,183.5C 197.667,187.833 197.667,192.167 197,196.5C 195.764,198.538 193.931,199.705 191.5,200C 177.764,200.945 164.097,200.612 150.5,199C 145.214,192.835 145.214,186.669 150.5,180.5 Z M 210.5,180.5 C 224.837,180.333 239.171,180.5 253.5,181C 257.305,185.091 258.472,189.924 257,195.5C 256.167,197.667 254.667,199.167 252.5,200C 238.833,200.667 225.167,200.667 211.5,200C 207.137,198.305 205.47,195.138 206.5,190.5C 205.767,186.177 207.1,182.844 210.5,180.5 Z M 270.5,180.5 C 284.837,180.333 299.171,180.5 313.5,181C 315.333,181.5 316.5,182.667 317,184.5C 317.667,188.5 317.667,192.5 317,196.5C 315.786,198.049 314.286,199.215 312.5,200C 298.833,200.667 285.167,200.667 271.5,200C 267.759,197.817 266.093,194.484 266.5,190C 266.339,186.16 267.672,182.994 270.5,180.5 Z M 331.5,180.5 C 345.837,180.333 360.171,180.5 374.5,181C 376.333,181.5 377.5,182.667 378,184.5C 378.667,188.167 378.667,191.833 378,195.5C 377.065,198.102 375.232,199.602 372.5,200C 359.5,200.667 346.5,200.667 333.5,200C 330.768,199.602 328.935,198.102 328,195.5C 327.333,191.833 327.333,188.167 328,184.5C 328.69,182.65 329.856,181.316 331.5,180.5 Z M 159.5,221.5 C 189.553,214.73 202.387,226.397 198,256.5C 197.073,264.761 192.573,269.928 184.5,272C 152.003,277.833 139.837,264.666 148,232.5C 150.437,227.226 154.271,223.56 159.5,221.5 Z M 340.5,221.5 C 370.56,214.738 383.394,226.404 379,256.5C 378.464,263.076 375.297,267.909 369.5,271C 335.155,279.987 321.655,267.154 329,232.5C 331.437,227.226 335.271,223.56 340.5,221.5 Z M 218.5,222.5 C 250.816,215.65 263.649,228.316 257,260.5C 254.927,267.287 250.427,271.453 243.5,273C 212.827,278.66 200.661,266.16 207,235.5C 208.589,229.083 212.423,224.749 218.5,222.5 Z M 279.5,222.5 C 288.506,222.334 297.506,222.5 306.5,223C 312.951,225.782 316.785,230.615 318,237.5C 323.327,267.172 311.16,279.005 281.5,273C 274.706,271.854 270.206,268.021 268,261.5C 267.333,252.167 267.333,242.833 268,233.5C 270.437,228.226 274.271,224.56 279.5,222.5 Z M 159.5,279.5 C 189.553,272.73 202.387,284.397 198,314.5C 197.464,321.076 194.297,325.909 188.5,329C 154.097,337.928 140.597,325.095 148,290.5C 150.437,285.226 154.271,281.56 159.5,279.5 Z M 341.5,279.5 C 371.568,273.403 384.068,285.403 379,315.5C 377.684,322.815 373.517,327.648 366.5,330C 334.134,336.634 321.634,323.8 329,291.5C 331.085,285.246 335.252,281.246 341.5,279.5 Z M 218.5,280.5 C 251.324,273.824 264.158,286.824 257,319.5C 255.037,325.731 250.87,329.564 244.5,331C 213.333,337.167 200.833,324.667 207,293.5C 207.806,290.554 209.139,287.888 211,285.5C 213.479,283.686 215.979,282.019 218.5,280.5 Z M 279.5,280.5 C 310.363,273.638 323.196,285.638 318,316.5C 316.614,324.22 312.114,329.053 304.5,331C 296.5,331.667 288.5,331.667 280.5,331C 274.09,329.554 269.923,325.721 268,319.5C 267.333,310.5 267.333,301.5 268,292.5C 270.019,286.65 273.852,282.65 279.5,280.5 Z M 281.5,337.5 C 311.741,332.909 323.575,345.576 317,375.5C 315.573,381.925 311.74,386.092 305.5,388C 273.176,395.342 260.343,382.842 267,350.5C 269.524,343.471 274.357,339.137 281.5,337.5 Z M 339.5,337.5 C 349.58,337.077 359.58,337.577 369.5,339C 374.149,341.455 376.983,345.288 378,350.5C 378.667,378.167 378.667,405.833 378,433.5C 377.116,440.049 373.616,444.549 367.5,447C 357.825,448.968 348.158,448.968 338.5,447C 333.359,445.193 329.859,441.693 328,436.5C 327.333,407.5 327.333,378.5 328,349.5C 330.019,343.65 333.852,339.65 339.5,337.5 Z M 163.5,338.5 C 171.893,338.17 180.227,338.67 188.5,340C 194.564,342.955 198.064,347.788 199,354.5C 200.093,363.658 199.426,372.658 197,381.5C 194.509,384.832 191.342,387.332 187.5,389C 178.167,389.667 168.833,389.667 159.5,389C 154.333,387.167 150.833,383.667 149,378.5C 148.333,369.167 148.333,359.833 149,350.5C 151.65,343.771 156.483,339.771 163.5,338.5 Z M 222.5,338.5 C 230.893,338.17 239.227,338.67 247.5,340C 252.06,342.227 255.226,345.727 257,350.5C 264.167,383.333 251.333,396.167 218.5,389C 208.359,384.08 204.359,375.914 206.5,364.5C 205.218,355.776 207.551,348.276 213.5,342C 216.459,340.396 219.459,339.229 222.5,338.5 Z M 223.5,396.5 C 253.774,393.298 264.941,406.631 257,436.5C 254.127,443.367 248.96,447.2 241.5,448C 232.666,449.029 223.999,448.362 215.5,446C 212.667,444.5 210.5,442.333 209,439.5C 206.073,428.952 205.74,418.286 208,407.5C 211.406,401.225 216.572,397.558 223.5,396.5 Z M 281.5,397.5 C 311.16,392.661 322.993,404.994 317,434.5C 315.854,441.294 312.021,445.794 305.5,448C 272.69,455.19 259.857,442.357 267,409.5C 269.949,403.036 274.783,399.036 281.5,397.5 Z M 160.5,398.5 C 193.47,393.313 205.637,406.979 197,439.5C 194.359,444.144 190.525,447.311 185.5,449C 153.158,455.657 140.658,442.824 148,410.5C 150.085,404.246 154.252,400.246 160.5,398.5 Z"/></g>
</svg>
